<svg xmlns="http://www.w3.org/2000/svg" width="37" height="37" viewBox="0 0 37 37"><defs><style>.a{fill:#1877f2;}.b{fill:#fff;}</style></defs><path class="a" d="M37,18.5A18.5,18.5,0,1,0,15.609,36.775V23.848h-4.7V18.5h4.7V14.424c0-4.637,2.762-7.2,6.988-7.2a28.449,28.449,0,0,1,4.141.361v4.553H24.405a2.674,2.674,0,0,0-3.015,2.889V18.5h5.131l-.82,5.348H21.391V36.775A18.5,18.5,0,0,0,37,18.5Z"/><path class="b" d="M316.789,216.621l.82-5.348h-5.131V207.8a2.674,2.674,0,0,1,3.015-2.889h2.333v-4.553a28.449,28.449,0,0,0-4.141-.361c-4.226,0-6.988,2.561-6.988,7.2v4.076H302v5.348h4.7v12.928a18.7,18.7,0,0,0,5.781,0V216.621Z" transform="translate(-291.088 -192.773)"/></svg>