<svg xmlns="http://www.w3.org/2000/svg" width="37" height="30.069" viewBox="0 0 37 30.069"><defs><style>.a{fill:#55acee;}</style></defs><path class="a" d="M104.343,92.49a15.18,15.18,0,0,1-4.36,1.2,7.614,7.614,0,0,0,3.338-4.2,15.2,15.2,0,0,1-4.82,1.842,7.6,7.6,0,0,0-12.936,6.924,21.551,21.551,0,0,1-15.646-7.931,7.6,7.6,0,0,0,2.349,10.135,7.559,7.559,0,0,1-3.438-.95c0,.032,0,.063,0,.1a7.6,7.6,0,0,0,6.089,7.443,7.609,7.609,0,0,1-3.428.13,7.6,7.6,0,0,0,7.091,5.272,15.231,15.231,0,0,1-9.428,3.249,15.468,15.468,0,0,1-1.811-.106A21.486,21.486,0,0,0,78.979,119c13.963,0,21.6-11.567,21.6-21.6q0-.494-.022-.982A15.428,15.428,0,0,0,104.343,92.49Z" transform="translate(-67.343 -88.93)"/></svg>